<svg id="visual" viewBox="0 0 900 600" width="900" height="600" xmlns="http://www.w3.org/2000/svg" xmlns:xlink="http://www.w3.org/1999/xlink" version="1.1"><g transform="translate(-12.46881323594505 67.5403297286642)"><path d="M244.4 -395.1C320.2 -379.6 387.4 -321.1 388.6 -248C389.8 -175 324.9 -87.5 304.1 -12C283.3 63.5 306.6 127 294.6 181.1C282.5 235.3 235 280 180 259.2C125 238.4 62.5 152 -0.6 153C-63.7 154 -127.3 242.4 -151.1 245.2C-175 248 -158.9 165.3 -202.6 110.1C-246.3 55 -349.6 27.5 -362.3 -7.3C-375 -42.2 -297.1 -84.3 -246.4 -127.3C-195.7 -170.4 -172.4 -214.2 -135.9 -252.3C-99.3 -290.4 -49.7 -322.7 17.3 -352.7C84.3 -382.7 168.7 -410.5 244.4 -395.1" fill="#001122"></path></g></svg>