<svg id="visual" viewBox="0 0 900 600" width="900" height="600" xmlns="http://www.w3.org/2000/svg" xmlns:xlink="http://www.w3.org/1999/xlink" version="1.1"><g transform="translate(495.0475508063015 321.83509535517726)"><path d="M118.5 -218.3C161.4 -180.6 209.3 -164.5 215.1 -131.8C220.8 -99 184.4 -49.5 178.3 -3.5C172.3 42.5 196.6 85 196.1 127C195.7 169 170.6 210.5 133.8 212.7C97 214.9 48.5 177.8 -6 188.2C-60.5 198.5 -121 256.5 -169.9 261.3C-218.9 266.1 -256.2 217.8 -279 165.4C-301.7 113 -309.9 56.5 -303.9 3.4C-298 -49.7 -278.1 -99.3 -237.2 -120.4C-196.4 -141.5 -134.7 -134 -91.7 -171.6C-48.7 -209.3 -24.3 -292.1 6.7 -303.8C37.8 -315.5 75.7 -256.1 118.5 -218.3" fill="#CCCCCC"></path></g></svg>