<svg id="visual" viewBox="0 0 900 675" width="900" height="675" xmlns="http://www.w3.org/2000/svg" xmlns:xlink="http://www.w3.org/1999/xlink" version="1.1"><g transform="translate(1067.45870127235 552.2589266386177)"><path d="M256.9 -448.5C309.2 -414.8 311.3 -297.9 335.7 -209.3C360 -120.7 406.5 -60.3 420.5 8.1C434.5 76.5 416 153 378 218C340 282.9 282.5 336.3 216.3 452.7C150 569.2 75 748.7 8.5 733.9C-58 719.2 -116 510.3 -244.5 429.8C-372.9 349.3 -571.9 397.1 -675 346.9C-778.2 296.7 -785.6 148.3 -707.6 45C-629.7 -58.3 -466.4 -116.7 -390 -213.2C-313.6 -309.8 -324 -444.6 -273.5 -479.2C-223 -513.9 -111.5 -448.5 -4.6 -440.5C102.3 -432.6 204.7 -482.2 256.9 -448.5" fill="#FFFFFF"></path></g></svg>