<svg id="visual" viewBox="0 0 900 900" width="900" height="900" xmlns="http://www.w3.org/2000/svg" xmlns:xlink="http://www.w3.org/1999/xlink" version="1.1"><g transform="translate(-86.10422670572063 197.81498487137333)"><path d="M527.7 -922.4C699 -815 863.5 -704.3 849.4 -550C835.3 -395.7 642.7 -197.8 551.4 -52.7C460.2 92.5 470.4 185 421.2 229.7C372 274.3 263.3 271.1 183.2 368C103.1 465 51.6 662 -17.6 692.4C-86.7 722.8 -173.3 586.6 -316.9 526.3C-460.6 466.1 -661.1 481.8 -677 406.7C-692.8 331.7 -523.9 165.8 -456.6 38.8C-389.4 -88.2 -423.8 -176.3 -420.3 -272.9C-416.9 -369.5 -375.7 -474.4 -299.4 -636.6C-223 -798.7 -111.5 -1018.1 33.3 -1075.9C178.2 -1133.6 356.3 -1029.7 527.7 -922.4" fill="#FFFFFF"></path></g></svg>