<svg id="visual" viewBox="0 0 900 600" width="900" height="600" xmlns="http://www.w3.org/2000/svg" xmlns:xlink="http://www.w3.org/1999/xlink" version="1.1"><g transform="translate(455.4639082758053 302.22826990019485)"><path d="M99.1 -130.2C133.9 -88.9 171.3 -62.8 198 -19C224.6 24.8 240.5 86.4 222.5 138.7C204.5 191.1 152.7 234.1 96.6 246.3C40.5 258.4 -20 239.6 -80.1 218.4C-140.2 197.2 -200 173.6 -225.2 130C-250.3 86.4 -240.9 22.8 -229.5 -40.3C-218.1 -103.3 -204.8 -165.8 -166.3 -206.5C-127.7 -247.2 -63.9 -266.1 -15.9 -247.2C32.1 -228.3 64.3 -171.6 99.1 -130.2" fill="#BB004B"></path></g></svg>