<svg id="visual" viewBox="0 0 900 675" width="900" height="675" xmlns="http://www.w3.org/2000/svg" xmlns:xlink="http://www.w3.org/1999/xlink" version="1.1"><g transform="translate(-45.74163391789591 137.9394528514067)"><path d="M344.1 -632.4C442.3 -539.4 515.6 -439.7 608.8 -333.2C702 -226.7 815 -113.3 847.5 18.7C880 150.8 831.9 301.7 706.2 351.9C580.5 402.1 377.3 351.8 246.6 361.2C116 370.6 58 439.8 -26.6 485.8C-111.2 531.9 -222.3 554.8 -342.3 539.2C-462.2 523.6 -590.9 469.5 -674.4 373.3C-757.8 277 -795.9 138.5 -738.3 33.3C-680.7 -72 -527.4 -144 -454.3 -258.2C-381.2 -372.3 -388.4 -528.7 -326 -642.4C-263.7 -756 -131.8 -827 -4.4 -819.4C123 -811.7 246 -725.4 344.1 -632.4" fill="#FFFFFF"></path></g></svg>