<svg id="visual" viewBox="0 0 900 900" width="900" height="900" xmlns="http://www.w3.org/2000/svg" xmlns:xlink="http://www.w3.org/1999/xlink" version="1.1"><g transform="translate(859.4428818936524 928.1401931843286)"><path d="M319.8 -562.8C445.2 -481.4 598.9 -458 756.6 -373.8C914.2 -289.7 1075.9 -144.8 1011.9 -36.9C948 71 658.5 142 505 233.5C351.6 325 334.3 437 272.8 453.1C211.3 469.2 105.7 389.3 -31.8 444.4C-169.3 499.6 -338.7 689.7 -453.1 704.2C-567.6 718.8 -627.2 557.6 -716.3 411C-805.5 264.3 -924.3 132.2 -942.6 -10.6C-960.9 -153.3 -878.8 -306.7 -739 -365.6C-599.2 -424.4 -401.6 -388.9 -268.8 -466.1C-136 -543.2 -68 -733.1 14.6 -758.4C97.2 -783.6 194.3 -644.3 319.8 -562.8" fill="#FFFFFF"></path></g></svg>