<svg id="visual" viewBox="0 0 900 900" width="900" height="900" xmlns="http://www.w3.org/2000/svg" xmlns:xlink="http://www.w3.org/1999/xlink" version="1.1"><g transform="translate(384.49612064478515 514.7021231026147)"><path d="M226.8 -399.6C289.6 -356.6 333.1 -287 378.5 -216C423.8 -145 470.9 -72.5 464.3 -3.8C457.6 64.8 397.3 129.7 322.6 150C248 170.3 159.2 146 103 177.1C46.9 208.2 23.4 294.6 -19.4 328.3C-62.3 362 -124.7 342.9 -169.8 305.5C-215 268.1 -243 212.3 -277 158.3C-311 104.3 -351 52.2 -326.2 14.3C-301.4 -23.5 -211.7 -47 -193.4 -128.2C-175.2 -209.4 -228.2 -348.3 -207.9 -415.8C-187.5 -483.4 -93.8 -479.7 -5.9 -469.5C82 -459.4 164 -442.7 226.8 -399.6" fill="none" stroke="#6600ff" stroke-width="8"></path></g></svg>