<svg id="visual" viewBox="0 0 900 900" width="900" height="900" xmlns="http://www.w3.org/2000/svg" xmlns:xlink="http://www.w3.org/1999/xlink" version="1.1"><g transform="translate(462.13898600742004 431.22838014223237)"><path d="M301.6 -345.6C362.2 -308.6 362.8 -186.4 372.4 -74.2C382 37.9 400.6 140 369.4 231.3C338.2 322.6 257.1 403.3 175.3 396C93.4 388.7 10.6 293.5 -94.8 256.7C-200.2 220 -328.3 241.7 -380.8 197.3C-433.3 152.9 -410.2 42.3 -365.8 -39.4C-321.4 -121.1 -255.9 -173.9 -191.3 -210.2C-126.8 -246.5 -63.4 -266.2 28.6 -300.3C120.5 -334.3 241 -382.6 301.6 -345.6" fill="none" stroke="#d81e1e" stroke-width="6"></path></g></svg>