<svg id="visual" viewBox="0 0 900 900" width="900" height="900" xmlns="http://www.w3.org/2000/svg" xmlns:xlink="http://www.w3.org/1999/xlink" version="1.1"><g transform="translate(426.9185628642422 379.95982075865464)"><path d="M81.9 -146.8C107.6 -127.1 130.9 -108.1 184 -83.7C237.1 -59.3 320.1 -29.7 353.2 19.2C386.4 68 369.9 136 319.1 164.4C268.4 192.9 183.4 181.7 124.6 211.2C65.7 240.7 32.8 310.9 -8.5 325.6C-49.8 340.3 -99.7 299.6 -164.6 273.6C-229.6 247.6 -309.6 236.3 -322.4 193.2C-335.1 150 -280.6 75 -258.2 12.9C-235.8 -49.2 -245.7 -98.3 -223.1 -124.5C-200.5 -150.6 -145.5 -153.7 -102.9 -163.6C-60.3 -173.5 -30.2 -190.3 -1 -188.5C28.1 -186.7 56.3 -166.4 81.9 -146.8" fill="#FFFFFF"></path></g></svg>