<svg id="visual" viewBox="0 0 900 600" width="900" height="600" xmlns="http://www.w3.org/2000/svg" xmlns:xlink="http://www.w3.org/1999/xlink" version="1.1"><rect x="0" y="0" width="900" height="600" fill="#002233"></rect><path d="M0 65L25 72.5C50 80 100 95 150 106.7C200 118.3 250 126.7 300 122.8C350 119 400 103 450 99.8C500 96.7 550 106.3 600 124.2C650 142 700 168 750 180.8C800 193.7 850 193.3 875 193.2L900 193L900 0L875 0C850 0 800 0 750 0C700 0 650 0 600 0C550 0 500 0 450 0C400 0 350 0 300 0C250 0 200 0 150 0C100 0 50 0 25 0L0 0Z" fill="#0066FF" stroke-linecap="round" stroke-linejoin="miter"></path></svg>