<svg id="visual" viewBox="0 0 960 540" width="960" height="540" xmlns="http://www.w3.org/2000/svg" xmlns:xlink="http://www.w3.org/1999/xlink" version="1.1"><path d="M0 404L22.8 396.2C45.7 388.3 91.3 372.7 137 366.3C182.7 360 228.3 363 274 366.8C319.7 370.7 365.3 375.3 411.2 386.3C457 397.3 503 414.7 548.8 423.2C594.7 431.7 640.3 431.3 686 421.5C731.7 411.7 777.3 392.3 823 389C868.7 385.7 914.3 398.3 937.2 404.7L960 411L960 541L937.2 541C914.3 541 868.7 541 823 541C777.3 541 731.7 541 686 541C640.3 541 594.7 541 548.8 541C503 541 457 541 411.2 541C365.3 541 319.7 541 274 541C228.3 541 182.7 541 137 541C91.3 541 45.7 541 22.8 541L0 541Z" fill="#0066FF" stroke-linecap="round" stroke-linejoin="miter"></path></svg>